# Blender 3.3.1
# www.blender.org
mtllib heart.mtl
o cube.004
v 0.220971 0.978553 0.220971
v -0.220971 0.978553 -0.220971
v 0.533471 0.536612 -0.091529
v 0.091529 0.536612 -0.533471
v -0.533471 0.536612 0.091529
v -0.091529 0.536612 0.533471
v -0.220971 0.094670 -0.220971
v 0.220971 0.094670 0.220971
v -0.220971 0.978553 0.220971
v 0.220971 0.978553 -0.220971
v 0.091529 0.536612 0.533471
v 0.533471 0.536612 0.091529
v -0.091529 0.536612 -0.533471
v -0.533471 0.536612 -0.091529
v 0.220971 0.094670 -0.220971
v -0.220971 0.094670 0.220971
v 0.312500 0.978553 0.000000
v -0.312500 0.978553 0.000000
v 0.312500 0.536612 -0.441942
v -0.312500 0.536612 -0.441942
v -0.312500 0.536612 0.441942
v 0.312500 0.536612 0.441942
v -0.312500 0.094670 0.000000
v 0.312500 0.094670 0.000000
v 0.000000 0.978553 0.312500
v 0.000000 0.978553 -0.312500
v 0.441942 0.536612 0.312500
v 0.441942 0.536612 -0.312500
v -0.441942 0.536612 -0.312500
v -0.441942 0.536612 0.312500
v 0.000000 0.094670 -0.312500
v 0.000000 0.094670 0.312500
v -0.220971 0.978553 0.220971
v 0.220971 0.978553 -0.220971
v 0.091529 0.536612 0.533471
v 0.533471 0.536612 0.091529
v -0.091529 0.536612 -0.533471
v -0.533471 0.536612 -0.091529
v 0.220971 0.094670 -0.220971
v -0.220971 0.094670 0.220971
vn -0.7071 -0.0000 -0.7071
vn 0.5000 0.7071 -0.5000
vn 0.7071 -0.0000 0.7071
vn -0.5000 -0.7071 0.5000
vn -0.5000 0.7071 0.5000
vn 0.5000 -0.7071 -0.5000
vn 0.7071 -0.0000 -0.7071
vn 0.5000 0.7071 0.5000
vn -0.7071 -0.0000 0.7071
vn -0.5000 -0.7071 -0.5000
vn -0.5000 0.7071 -0.5000
vn 0.5000 -0.7071 0.5000
vn -1.0000 -0.0000 -0.0000
vn -0.0000 0.7071 -0.7071
vn 1.0000 -0.0000 -0.0000
vn -0.0000 -0.7071 0.7071
vn -0.0000 0.7071 0.7071
vn -0.0000 -0.7071 -0.7071
vn -0.0000 -0.0000 -1.0000
vn 0.7071 0.7071 -0.0000
vn -0.0000 -0.0000 1.0000
vn -0.7071 -0.7071 -0.0000
vn -0.7071 0.7071 -0.0000
vn 0.7071 -0.7071 -0.0000
vt 0.000000 1.000000
vt 0.625000 1.000000
vt 0.625000 0.375000
vt 0.000000 1.000000
vt 0.625000 1.000000
vt 0.000000 0.375000
vt 0.625000 0.375000
vt 0.625000 1.000000
vt 0.000000 0.375000
vt 0.625000 0.375000
vt 0.625000 1.000000
vt 0.000000 1.000000
vt 0.000000 1.000000
vt 0.625000 1.000000
vt 0.000000 0.375000
vt 0.625000 0.375000
vt 0.000000 0.375000
vt 0.000000 0.375000
vt 0.625000 0.375000
vt 0.000000 1.000000
vt 0.000000 1.000000
vt 0.625000 1.000000
vt 0.625000 0.375000
vt 0.000000 1.000000
vt 0.625000 1.000000
vt 0.000000 0.375000
vt 0.625000 0.375000
vt 0.625000 1.000000
vt 0.000000 0.375000
vt 0.625000 0.375000
vt 0.625000 1.000000
vt 0.000000 1.000000
vt 0.000000 1.000000
vt 0.625000 1.000000
vt 0.000000 0.375000
vt 0.625000 0.375000
vt 0.000000 0.375000
vt 0.000000 0.375000
vt 0.625000 0.375000
vt 0.000000 1.000000
vt 0.000000 1.000000
vt 0.625000 1.000000
vt 0.625000 0.375000
vt 0.000000 1.000000
vt 0.625000 1.000000
vt 0.000000 0.375000
vt 0.625000 0.375000
vt 0.625000 1.000000
vt 0.000000 0.375000
vt 0.625000 0.375000
vt 0.625000 1.000000
vt 0.000000 1.000000
vt 0.000000 1.000000
vt 0.625000 1.000000
vt 0.000000 0.375000
vt 0.625000 0.375000
vt 0.000000 0.375000
vt 0.000000 0.375000
vt 0.625000 0.375000
vt 0.000000 1.000000
vt 0.000000 1.000000
vt 0.625000 1.000000
vt 0.625000 0.375000
vt 0.000000 1.000000
vt 0.625000 1.000000
vt 0.000000 0.375000
vt 0.625000 0.375000
vt 0.625000 1.000000
vt 0.000000 0.375000
vt 0.625000 0.375000
vt 0.625000 1.000000
vt 0.000000 1.000000
vt 0.000000 1.000000
vt 0.625000 1.000000
vt 0.000000 0.375000
vt 0.625000 0.375000
vt 0.000000 0.375000
vt 0.000000 0.375000
vt 0.625000 0.375000
vt 0.000000 1.000000
vt 0.000000 1.000000
vt 0.625000 1.000000
vt 0.625000 0.375000
vt 0.000000 1.000000
vt 0.625000 1.000000
vt 0.000000 0.375000
vt 0.625000 0.375000
vt 0.625000 1.000000
vt 0.000000 0.375000
vt 0.625000 0.375000
vt 0.625000 1.000000
vt 0.000000 1.000000
vt 0.000000 1.000000
vt 0.625000 1.000000
vt 0.000000 0.375000
vt 0.625000 0.375000
vt 0.000000 0.375000
vt 0.000000 0.375000
vt 0.625000 0.375000
vt 0.000000 1.000000
s 0
usemtl metal
f 4/9/1 7/16/1 5/11/1 2/4/1
f 3/6/2 4/10/2 2/5/2 1/1/2
f 8/18/3 3/7/3 1/2/3 6/13/3
f 7/17/4 8/19/4 6/14/4 5/12/4
f 6/15/5 1/3/5 2/5/5 5/12/5
f 7/17/6 4/10/6 3/8/6 8/20/6
f 12/29/7 15/36/7 13/31/7 10/24/7
f 11/26/8 12/30/8 10/25/8 9/21/8
f 16/38/9 11/27/9 9/22/9 14/33/9
f 15/37/10 16/39/10 14/34/10 13/32/10
f 14/35/11 9/23/11 10/25/11 13/32/11
f 15/37/12 12/30/12 11/28/12 16/40/12
f 20/49/13 23/56/13 21/51/13 18/44/13
f 19/46/14 20/50/14 18/45/14 17/41/14
f 24/58/15 19/47/15 17/42/15 22/53/15
f 23/57/16 24/59/16 22/54/16 21/52/16
f 22/55/17 17/43/17 18/45/17 21/52/17
f 23/57/18 20/50/18 19/48/18 24/60/18
f 28/69/19 31/76/19 29/71/19 26/64/19
f 27/66/20 28/70/20 26/65/20 25/61/20
f 32/78/21 27/67/21 25/62/21 30/73/21
f 31/77/22 32/79/22 30/74/22 29/72/22
f 30/75/23 25/63/23 26/65/23 29/72/23
f 31/77/24 28/70/24 27/68/24 32/80/24
f 36/89/7 39/96/7 37/91/7 34/84/7
f 35/86/8 36/90/8 34/85/8 33/81/8
f 40/98/9 35/87/9 33/82/9 38/93/9
f 39/97/10 40/99/10 38/94/10 37/92/10
f 38/95/11 33/83/11 34/85/11 37/92/11
f 39/97/12 36/90/12 35/88/12 40/100/12
o stand
v 0.250000 0.437500 0.250000
v 0.250000 0.437500 -0.250000
v 0.250000 -0.000000 0.250000
v 0.250000 0.000000 -0.250000
v -0.250000 0.437500 -0.250000
v -0.250000 0.437500 0.250000
v -0.250000 0.000000 -0.250000
v -0.250000 -0.000000 0.250000
v 0.500000 0.125000 0.500000
v 0.500000 0.125000 -0.500000
v 0.500000 -0.000000 0.500000
v 0.500000 0.000000 -0.500000
v -0.500000 0.125000 -0.500000
v -0.500000 0.125000 0.500000
v -0.500000 0.000000 -0.500000
v -0.500000 -0.000000 0.500000
vn -0.0000 -0.0000 -1.0000
vn 1.0000 -0.0000 -0.0000
vn -0.0000 -0.0000 1.0000
vn -1.0000 -0.0000 -0.0000
vn -0.0000 1.0000 -0.0000
vn -0.0000 -1.0000 -0.0000
vt 0.000000 1.000000
vt 0.500000 1.000000
vt 0.500000 0.500000
vt 0.000000 1.000000
vt 0.500000 1.000000
vt 0.000000 0.562500
vt 0.500000 0.562500
vt 0.500000 1.000000
vt 0.000000 0.562500
vt 0.500000 0.562500
vt 0.500000 0.500000
vt 0.500000 1.000000
vt 0.000000 1.000000
vt 0.000000 1.000000
vt 0.500000 1.000000
vt 0.000000 0.500000
vt 0.500000 0.562500
vt 0.000000 0.562500
vt 0.000000 0.500000
vt 0.000000 0.562500
vt 0.500000 0.562500
vt 0.000000 1.000000
vt 0.000000 1.000000
vt 1.000000 1.000000
vt 1.000000 0.000000
vt 0.000000 1.000000
vt 1.000000 1.000000
vt 0.000000 0.875000
vt 1.000000 0.875000
vt 1.000000 1.000000
vt 0.000000 0.875000
vt 1.000000 0.875000
vt 1.000000 0.000000
vt 1.000000 1.000000
vt 0.000000 1.000000
vt 0.000000 1.000000
vt 1.000000 1.000000
vt 0.000000 0.000000
vt 1.000000 0.875000
vt 0.000000 0.875000
vt 0.000000 0.000000
vt 0.000000 0.875000
vt 1.000000 0.875000
vt 0.000000 1.000000
s 0
usemtl base
f 44/109/25 47/117/25 45/112/25 42/104/25
f 43/106/26 44/110/26 42/105/26 41/101/26
f 48/120/27 43/107/27 41/102/27 46/114/27
f 47/118/28 48/121/28 46/115/28 45/113/28
f 46/116/29 41/103/29 42/105/29 45/113/29
f 47/119/30 44/111/30 43/108/30 48/122/30
f 52/131/25 55/139/25 53/134/25 50/126/25
f 51/128/26 52/132/26 50/127/26 49/123/26
f 56/142/27 51/129/27 49/124/27 54/136/27
f 55/140/28 56/143/28 54/137/28 53/135/28
f 54/138/29 49/125/29 50/127/29 53/135/29
f 55/141/30 52/133/30 51/130/30 56/144/30
