# Blender 3.3.1
# www.blender.org
mtllib polyp.mtl
o Cube
v 0.545394 0.050403 -0.529984
v 0.541219 -0.546081 -0.525808
v 0.545227 0.050711 0.570016
v 0.541219 -0.546081 0.566035
v -0.554606 0.050403 -0.529984
v -0.550431 -0.546081 -0.525808
v -0.554278 0.050772 0.569891
v -0.550431 -0.546081 0.566035
v 0.270529 0.169631 0.304536
v -0.335097 0.148367 0.347434
v 0.213301 0.275052 -0.198003
v -0.222471 0.274811 -0.197959
v -0.019066 0.124174 0.463518
v 0.353560 0.109045 0.058215
v -0.376998 0.191679 0.042740
v -0.004606 0.209532 -0.318126
vn 0.0024 0.8975 0.4411
vn -0.0001 -0.0066 1.0000
vn -1.0000 -0.0067 0.0002
vn -0.0000 -1.0000 -0.0000
vn 1.0000 -0.0069 0.0001
vn -0.0000 -0.0070 -1.0000
vn -0.5379 0.8429 0.0136
vn 0.4572 0.8887 0.0345
vn -0.0001 0.8225 -0.5687
vt 1.000000 0.587713
vt 1.000000 1.000000
vt 0.996204 0.996204
vt 0.996204 0.045455
vt 0.999848 0.587993
vt 0.000000 0.587993
vt 0.999848 0.000000
vt 0.996204 0.045455
vt 0.996204 0.003619
vt 0.003619 0.045455
vt 1.000000 0.587713
vt 0.000000 0.587713
vt 0.000000 1.000000
vt 0.996204 0.045455
vt 0.003796 0.996204
vt 0.003796 0.045455
vt 0.000299 0.588049
vt 0.000114 0.588049
vt 0.000299 0.000114
vt 0.003796 0.045455
vt 0.003619 0.045455
vt 0.003796 0.003619
vt 0.750123 0.241346
vt 0.199554 0.202347
vt 0.698098 0.698200
vt 0.301941 0.698159
vt 0.486855 0.096817
vt 0.825606 0.465273
vt 0.161462 0.479342
vt 0.500000 0.807402
s 0
usemtl Material
f 7/19/1 3/7/1 9/23/1 13/27/1 10/24/1
f 4/8/2 3/5/2 7/17/2 8/20/2
f 8/21/3 7/18/3 5/11/3 6/14/3
f 6/15/4 2/3/4 4/9/4 8/22/4
f 2/4/5 1/1/5 3/6/5 4/10/5
f 6/16/6 5/12/6 1/1/6 2/4/6
f 5/13/7 7/19/7 10/24/7 15/29/7 12/26/7
f 3/7/8 1/2/8 11/25/8 14/28/8 9/23/8
f 1/2/9 5/13/9 12/26/9 16/30/9 11/25/9
o Cube.001
v 0.270529 0.169631 0.304536
v -0.335097 0.148367 0.347434
v 0.213301 0.275052 -0.198003
v -0.222471 0.274811 -0.197959
v -0.019066 0.124174 0.463518
v 0.353560 0.109045 0.058215
v -0.376998 0.191679 0.042740
v -0.004606 0.209532 -0.318126
v -0.004563 0.453785 0.178737
v -0.019184 0.226343 0.422170
v -0.291916 0.249048 0.304253
v 0.311971 0.211343 0.058318
v 0.244675 0.263446 0.278677
v -0.337032 0.287487 0.042111
v -0.196613 0.368646 -0.172097
v -0.004606 0.312031 -0.276454
v 0.187447 0.368868 -0.172144
v -0.106846 0.453919 0.122383
v 0.154239 0.453828 0.020002
v 0.097782 0.453864 0.122483
v -0.163405 0.453606 0.020049
v -0.107217 0.453453 -0.082515
v -0.004606 0.453533 -0.138819
v 0.098004 0.453453 -0.082515
v -0.004606 0.453120 0.020114
vn 0.9016 0.3447 -0.2614
vn -0.3059 0.4208 0.8540
vn -0.3698 0.3454 -0.8625
vn -0.8392 0.3470 -0.4188
vn -0.2483 0.7352 0.6307
vn -0.6453 0.7337 -0.2129
vn 0.2813 0.7083 0.6475
vn -0.6231 0.7406 0.2513
vn 0.3692 0.3454 -0.8628
vn 0.9152 0.3426 0.2121
vn -0.8865 0.4189 0.1965
vn 0.4103 0.3440 0.8446
vn 0.0033 1.0000 -0.0045
vn -0.0038 1.0000 -0.0035
vn -0.0026 1.0000 0.0007
vn 0.0019 1.0000 0.0014
vn -0.2119 0.7329 -0.6465
vn 0.7802 0.6108 -0.1352
vn 0.2111 0.7332 -0.6464
vn 0.7603 0.6209 0.1912
vt 0.241346 0.696102
vt 0.750123 0.696102
vt 0.199554 0.676771
vt 0.202347 0.676771
vt 0.698200 0.791939
vt 0.698098 0.791939
vt 0.301941 0.791720
vt 0.698159 0.791720
vt 0.486855 0.654777
vt 0.465273 0.641024
vt 0.479342 0.716145
vt 0.500000 0.732376
vt 0.500039 0.355708
vt 0.486747 0.134405
vt 0.486747 0.747658
vt 0.238809 0.768299
vt 0.238809 0.241603
vt 0.241603 0.768299
vt 0.465180 0.734022
vt 0.726619 0.264854
vt 0.726619 0.781388
vt 0.264854 0.781388
vt 0.197795 0.479914
vt 0.479914 0.803244
vt 0.325449 0.877024
vt 0.674649 0.877024
vt 0.325449 0.674649
vt 0.500000 0.825557
vt 0.500000 0.769518
vt 0.674691 0.877226
vt 0.674594 0.674691
vt 0.407055 0.406939
vt 0.644405 0.500013
vt 0.500013 0.954463
vt 0.593080 0.406849
vt 0.406849 0.954495
vt 0.355637 0.499970
vt 0.406717 0.593210
vt 0.500000 0.644396
vt 0.593210 0.954122
vt 0.593282 0.593210
vt 0.500000 0.499911
s 0
usemtl flesh
f 22/40/10 19/35/10 33/60/10 28/49/10
f 18/33/11 21/39/11 26/45/11 27/46/11
f 24/42/12 20/37/12 31/55/12 32/58/12
f 20/38/13 23/41/13 30/54/13 31/56/13
f 27/47/14 26/44/14 25/43/14 34/62/14
f 31/57/15 30/53/15 37/67/15 38/68/15
f 26/44/16 29/50/16 36/65/16 25/43/16
f 30/53/17 27/47/17 34/62/17 37/67/17
f 19/36/18 24/42/18 32/58/18 33/60/18
f 17/31/19 22/40/19 28/49/19 29/52/19
f 23/41/20 18/34/20 27/48/20 30/54/20
f 21/39/21 17/32/21 29/51/21 26/45/21
f 41/72/22 37/67/22 34/62/22 25/43/22
f 35/63/23 41/72/23 25/43/23 36/65/23
f 40/71/24 39/69/24 41/72/24 35/63/24
f 39/69/25 38/68/25 37/67/25 41/72/25
f 32/59/26 31/57/26 38/68/26 39/69/26
f 28/49/27 33/60/27 40/70/27 35/64/27
f 33/61/28 32/59/28 39/69/28 40/71/28
f 29/52/29 28/49/29 35/64/29 36/66/29
